<svg xmlns="http://www.w3.org/2000/svg" version="1.1" xmlns:xlink="http://www.w3.org/1999/xlink" xmlns:svgjs="http://svgjs.dev/svgjs" width="1000" height="1000" viewBox="0 0 1000 1000"><rect width="1000" height="1000" fill="#ffffff"></rect><g transform="matrix(0.7,0,0,0.7,149.57576094975013,400.21556264144823)"><svg viewBox="0 0 396 113" data-background-color="#ffffff" preserveAspectRatio="xMidYMid meet" height="285" width="1000" xmlns="http://www.w3.org/2000/svg" xmlns:xlink="http://www.w3.org/1999/xlink"><g id="tight-bounds" transform="matrix(1,0,0,1,0.23999815083413978,0.019505872262385537)"><svg viewBox="0 0 395.52 112.96098825547524" height="112.96098825547524" width="395.52"><g><svg viewBox="0 0 617.9430633744076 176.48528298035208" height="112.96098825547524" width="395.52"><g><rect width="7.372137136789589" height="176.48528298035208" x="195.75213792141494" y="0" fill="#000000" opacity="1" stroke-width="0" stroke="transparent" fill-opacity="1" class="rect-o-0" data-fill-palette-color="primary" rx="1%" id="o-0" data-palette-color="#471aa0"></rect></g><g transform="matrix(1,0,0,1,222.42306337440763,0.439018116866535)"><svg viewBox="0 0 395.52 175.607246746619" height="175.607246746619" width="395.52"><g><svg viewBox="0 0 395.52 175.607246746619" height="175.607246746619" width="395.52"><g><svg viewBox="0 0 395.52 175.607246746619" height="175.607246746619" width="395.52"><g transform="matrix(1,0,0,1,0,0)"><svg width="395.52" viewBox="1.6000001430511475 -40.5 195.9499969482422 84" height="175.607246746619" data-palette-color="#471aa0"><svg></svg><svg></svg><g class="undefined-text-0" data-fill-palette-color="primary" id="text-0"><path xmlns="http://www.w3.org/2000/svg" d="M4.3 0h-2.7l8.5-40.5h3.15l8.55 40.5h-2.75l-2.1-11.2h-10.5zM11.7-37.2l-4.85 24h9.75zM29.55 0h-2.4v-40.5h2.15l13.75 34.2v-34.2h2.4v40.5h-2.15l-13.75-34.25zM62.2 0h-2.7v-12.95l-9.35-27.55h2.8l7.95 24.3 7.55-24.3h2.8l-9.05 27.55zM83.35 0h-2.35l-7.05-40.5h2.4l5.95 35.15 6.5-34.25h2.6l6.7 34.25 5.4-35.15h2.35l-6.55 40.5h-2.3l-6.9-35.45zM114 0h-2.75v-40.5h2.75v18.25h14.2v-18.25h2.7v40.5h-2.7v-20.15h-14.2zM152.5 0h-14.15v-40.5h14v2.2h-11.25v16.25h9.25v2.1h-9.25v17.8h11.4zM160.75 0h-2.7v-40.5h9.8c2.4 0 4.243 0.44 5.53 1.32 1.28 0.887 2.163 2.087 2.65 3.6 0.48 1.52 0.72 3.213 0.72 5.08v0c0 1.5-0.157 2.933-0.47 4.3-0.32 1.367-0.903 2.523-1.75 3.47-0.853 0.953-2.097 1.563-3.73 1.83v0l6.5 20.9h-2.7l-6.3-20.4h-7.55zM160.75-38.35v15.85h7c1.733 0 3.05-0.327 3.95-0.98 0.9-0.647 1.527-1.57 1.88-2.77 0.347-1.2 0.52-2.617 0.52-4.25v0c0-2.567-0.423-4.517-1.27-5.85-0.853-1.333-2.563-2-5.13-2v0zM197.55 0h-14.15v-40.5h14v2.2h-11.25v16.25h9.25v2.1h-9.25v17.8h11.4z" fill="#000000" fill-rule="nonzero" stroke="none" stroke-width="1" stroke-linecap="butt" stroke-linejoin="miter" stroke-miterlimit="10" stroke-dasharray="" stroke-dashoffset="0" font-family="none" font-weight="none" font-size="none" text-anchor="none" style="mix-blend-mode: normal" data-fill-palette-color="primary" opacity="1"></path><path xmlns="http://www.w3.org/2000/svg" d="M6.45 43.5h-2.7v-40.5h9.8c2.4 0 4.24 0.44 5.52 1.32 1.287 0.887 2.173 2.087 2.66 3.6 0.48 1.52 0.72 3.213 0.72 5.08v0c0 1.5-0.157 2.933-0.47 4.3-0.32 1.367-0.903 2.523-1.75 3.47-0.853 0.953-2.097 1.563-3.73 1.83v0l6.5 20.9h-2.7l-6.3-20.4h-7.55zM6.45 5.15v15.85h7c1.733 0 3.05-0.327 3.95-0.98 0.9-0.647 1.527-1.57 1.88-2.77 0.347-1.2 0.52-2.617 0.52-4.25v0c0-2.567-0.423-4.517-1.27-5.85-0.853-1.333-2.563-2-5.13-2v0zM31.85 43.5h-2.7v-40.5h9.5c2.433 0 4.333 0.457 5.7 1.37 1.367 0.92 2.327 2.163 2.88 3.73 0.547 1.567 0.82 3.35 0.82 5.35v0c0 1.8-0.273 3.517-0.82 5.15-0.553 1.633-1.513 2.967-2.88 4-1.367 1.033-3.25 1.55-5.65 1.55v0h-6.85zM31.85 5.1v16.95h6.25c1.633 0 2.977-0.283 4.03-0.85 1.047-0.567 1.83-1.477 2.35-2.73 0.513-1.247 0.77-2.92 0.77-5.02v0c0-2.167-0.233-3.86-0.7-5.08-0.467-1.213-1.217-2.063-2.25-2.55-1.033-0.48-2.417-0.72-4.15-0.72v0zM51.8 43.5h-2.7l8.5-40.5h3.15l8.55 40.5h-2.75l-2.1-11.2h-10.5zM59.2 6.3l-4.85 24h9.75z" fill="#000000" fill-rule="nonzero" stroke="none" stroke-width="1" stroke-linecap="butt" stroke-linejoin="miter" stroke-miterlimit="10" stroke-dasharray="" stroke-dashoffset="0" font-family="none" font-weight="none" font-size="none" text-anchor="none" style="mix-blend-mode: normal" data-fill-palette-color="primary" opacity="1"></path></g></svg></g></svg></g></svg></g></svg></g><g transform="matrix(1,0,0,1,0,0.439018116866535)"><svg viewBox="0 0 176.45334960521183 175.607246746619" height="175.607246746619" width="176.45334960521183"><g><svg xmlns="http://www.w3.org/2000/svg" xmlns:xlink="http://www.w3.org/1999/xlink" version="1.1" x="0" y="0" viewBox="6.322000026702881 6.814999580383301 50.64384078979492 50.4010009765625" enable-background="new 0 0 64 64" xml:space="preserve" height="175.607246746619" width="176.45334960521183" class="icon-icon-0" data-fill-palette-color="accent" id="icon-0"><g fill="#471aa0" data-fill-palette-color="accent"><g fill="#471aa0" data-fill-palette-color="accent"><path fill-rule="evenodd" clip-rule="evenodd" d="M14.002 18.335c2.208 0.695 3.948 2.428 5.52 0.72 0.522-1.915-0.904-2.667 0-4.56-0.302-0.099-0.491-0.31-0.48-0.72-2-0.59-2.723 0.341-4.8 0.24C13.483 15.192 14.184 16.468 14.002 18.335z" fill="#000000" data-fill-palette-color="accent"></path><path fill-rule="evenodd" clip-rule="evenodd" d="M11.842 30.815c0.586-0.82-0.455-0.941 0-2.16-2.654-1.991-4.427 1.542-5.52 2.88 0 0.32 0 0.64 0 0.96 1.069 1.25 1.826 2.814 4.32 2.64 0.305-0.67 0.592-1.186 0.24-1.92 0.923-0.197 2.137-0.104 2.16-1.2C13.159 31.099 12.193 31.264 11.842 30.815z" fill="#000000" data-fill-palette-color="accent"></path><path fill-rule="evenodd" clip-rule="evenodd" d="M50.002 45.695c-2.022-0.651-3.781-2.41-5.521-0.72-0.476 1.224 0.097 1.91 0.48 2.88-1.768 3.286 3.41 2.833 5.04 1.68C50.428 48.509 49.771 47.243 50.002 45.695z" fill="#000000" data-fill-palette-color="accent"></path><path fill-rule="evenodd" clip-rule="evenodd" d="M17.842 47.615c0.699-0.34 1.069-1.011 0.96-2.16-3.359-2.03-6.432-0.988-5.52 3.601 0.07 0.353 0.674 0.475 0.48 1.2 1.861 0.58 4.001 0.114 5.28-0.96C19.003 48.374 18.533 47.885 17.842 47.615z" fill="#000000" data-fill-palette-color="accent"></path><path fill-rule="evenodd" clip-rule="evenodd" d="M30.562 11.135c-0.571 1.028 0.046 0.681-0.48 1.92 0.539 0.285 0.855 0.713 2.16 1.2 0.85-0.59 1.649-1.231 1.68-2.64 3.633-0.845 0.255-4.282-1.44-4.8-0.24 0-0.48 0-0.72 0-1.072 1.015-3.142 2.018-2.64 3.84C29.288 11.129 30.461 10.596 30.562 11.135z" fill="#000000" data-fill-palette-color="accent"></path><path fill-rule="evenodd" clip-rule="evenodd" d="M33.922 51.216c-0.446-0.732-0.798-0.801-2.16-1.44-0.035 0.524-0.604 0.516-1.2 0.48 0.293 1.093-0.659 0.941-0.48 1.92-3.417 1.107-0.49 4.421 1.44 5.04 0.24 0 0.48 0 0.72 0 0.952-1.209 2.891-1.43 2.64-3.841-0.256-0.464-1.105-0.334-1.44-0.72C34.184 51.796 33.235 52.13 33.922 51.216z" fill="#000000" data-fill-palette-color="accent"></path><path fill-rule="evenodd" clip-rule="evenodd" d="M44.481 17.855c0.142 0.979 0.702 1.539 1.681 1.68 1.244-1.036 2.088-0.665 3.6-0.72 0.824-1.111 0.012-2.499 0.24-4.32-2.641-1.009-3.172-2.148-5.521-0.96C43.574 15.658 45.641 16.47 44.481 17.855z" fill="#000000" data-fill-palette-color="accent"></path><path fill-rule="evenodd" clip-rule="evenodd" d="M47.361 35.855c-0.696-0.545 0.068-0.995 0.24-0.96-0.255-0.324-0.569-1.806-0.24-1.92 0.317 0.002 0.22 0.421 0.48 0.479-0.07-0.557-0.603-1.125 0.48-0.959 0.19-0.925-1.84-1.923-0.24-1.44-0.655-0.745 0.043-1.438-0.96-1.92 0.646 0.166 0.464-0.496 0.72-0.72-1.247-1.764-1.275-5.002-3.84-5.76 0.053-0.187 0.201-0.279 0.479-0.24-0.222-0.898-0.979-1.261-1.199-2.16-3.082-1.458-5.325-3.343-8.641-3.84-9.15-1.371-18.541 5.712-18 15.6 0.474 8.666 7.471 16.151 17.76 14.88 6.154-0.761 10.603-5.449 12.24-10.8C46.924 36.058 47.323 36.137 47.361 35.855zM30.082 20.496c0.232 1.368 0.77 2.43 0.72 4.08-1.474 0.479-2.66-0.454-4.08-0.72C27.138 21.502 29.621 22.685 30.082 20.496zM22.402 39.936c-2.02-1.42-2.924-3.956-3.36-6.96 4.468-0.432 2.817 3.274 4.32 6.24C22.761 39.175 22.61 39.584 22.402 39.936zM23.362 24.815c-0.736 0.63-1.151 2.766-0.96 5.52-0.96 0-1.92 0-2.88 0-0.02-3.22 1.391-5.009 2.64-6.96 0.599 0.441 1.418 0.662 1.44 1.68C23.397 25.1 23.375 24.962 23.362 24.815zM23.842 42.096c0.376-1.177 1.408-0.562 1.68 0.239C25.187 42.959 24.28 42.16 23.842 42.096zM29.842 43.296c-1.105-0.896-2.572-1.428-2.88-3.12 0.99-0.61 2.458-0.742 3.6-1.2C32.113 40.949 29.354 41.087 29.842 43.296zM26.482 37.296c-0.465-1.726-1.366-2.153-1.2-4.08 1.818-0.183 3.676-0.325 5.76-0.24C31.208 36.739 29.256 36.068 26.482 37.296zM30.562 29.855c-0.876-0.011-3.1 0.533-4.8 0.48-0.116-1.946-0.265-2.401 0.24-4.32 1.799 0.201 3.103 0.896 5.04 0.96C31.325 28.379 30.441 28.614 30.562 29.855zM32.962 19.295c2.779 0.682 1.182 2.933 3.12 4.32-1.192 0.126-2.215 1.025-2.641 1.2C32.855 23.402 32.964 21.293 32.962 19.295zM33.202 44.495c0.035-1.759-0.655-3.926 0-5.52 1.865 0.208 1.651 1.443 2.88 1.92C35.347 42.32 34.409 43.543 33.202 44.495zM38.002 38.016c-1.758-0.242-3.024-0.976-5.04-0.96-0.196-1.557 0.559-2.162 0.96-3.12 1.706 0.186 2.677-0.363 4.32-0.24C38.428 35.392 38.46 36.527 38.002 38.016zM38.722 30.815c-1.897 0.103-3.636 0.364-5.76 0.24-0.399-3.439 2.524-3.556 4.8-4.32C37.862 28.768 38.954 28.851 38.722 30.815zM38.962 22.655c-0.033-0.447-0.158-0.802-0.48-0.96 0.335-0.624 1.242 0.175 1.681 0.24C39.942 22.356 39.716 22.769 38.962 22.655zM41.842 40.415c-0.876-0.163-1.17-0.909-1.92-1.199 0.71-2.642 2.222-2.17 1.92-5.28 0.438-0.367 1.963-0.367 2.4 0C44.433 36.416 43.064 38.635 41.842 40.415zM40.882 24.815c2.377-1.521 3.605 3.542 4.08 6.24C40.7 31.323 41.887 28.198 40.882 24.815z" fill="#000000" data-fill-palette-color="accent"></path><path fill-rule="evenodd" clip-rule="evenodd" d="M56.002 28.655c-1.279 0.095-1.031-0.719-1.92-0.72-1.885-0.002-1.775 2.722-3.601 3.12-0.344 1.06 0.174 1.439 0.48 2.399 0.861-0.198 1.161 0.541 1.68 0 1.109 3.546 4.21 0.534 4.32-1.439C57.084 29.822 54.812 29.637 56.002 28.655z" fill="#000000" data-fill-palette-color="accent"></path></g></g></svg></g></svg></g></svg></g><defs></defs></svg><rect width="395.52" height="112.96098825547524" fill="none" stroke="none" visibility="hidden"></rect></g></svg></g></svg>