<svg xmlns="http://www.w3.org/2000/svg" version="1.1" xmlns:xlink="http://www.w3.org/1999/xlink" xmlns:svgjs="http://svgjs.dev/svgjs" width="1000" height="1000" viewBox="0 0 1000 1000"><rect width="1000" height="1000" fill="#ffffff"></rect><g transform="matrix(0.7,0,0,0.7,149.57575757575756,252.54999999999998)"><svg viewBox="0 0 396 280" data-background-color="#010536" preserveAspectRatio="xMidYMid meet" height="707" width="1000" xmlns="http://www.w3.org/2000/svg" xmlns:xlink="http://www.w3.org/1999/xlink"><g id="tight-bounds" transform="matrix(1,0,0,1,0.2400000000000091,0)"><svg viewBox="0 0 395.52 280" height="280" width="395.52"><g><svg viewBox="0 0 395.52 280" height="280" width="395.52"><g><svg viewBox="0 0 395.52 280" height="280" width="395.52"><g><svg viewBox="0 0 395.52 280" height="280" width="395.52"><g><svg viewBox="0 0 395.52 280" height="280" width="395.52"><g transform="matrix(1,0,0,1,95.65203525306555,57.50420886156945)"><svg viewBox="0 0 204.21592949386888 164.9915822768611" height="164.9915822768611" width="204.21592949386888"><g><circle r="82" cx="102.10796474693444" cy="82.49579113843055" fill="#000000" data-fill-palette-color="accent"></circle><svg xmlns="http://www.w3.org/2000/svg" xmlns:xlink="http://www.w3.org/1999/xlink" version="1.1" x="34.95935926186291" y="34.959359261862915" viewBox="10.439001083374023 5 79.12200164794922 90" enable-background="new 0 0 100 100" xml:space="preserve" height="95.07286375313527" width="134.29721097014308" class="icon-o-0" data-fill-palette-color="quaternary" id="o-0"><path d="M37.126 17.79c-0.566 0.566-0.865 1.342-0.865 2.117 0 0.774 0.299 1.551 0.865 2.117 0.535 0.535 1.311 0.864 2.116 0.864 0.774 0 1.55-0.329 2.086-0.864 0.567-0.566 0.896-1.343 0.896-2.117 0-0.775-0.328-1.551-0.896-2.117C40.226 16.687 38.229 16.687 37.126 17.79zM89.561 22.999l-4.215-4.216-4.988 4.991h-8.082c-0.141-4.207-0.971-6.938-1.008-7.06l-0.658-2.087h-2.186c-7.857 0-11.709-1.951-16.172-4.213C47.241 7.878 41.562 5 30.037 5c-11.173 0-19.598 8.331-19.598 19.378v0.002c0 16.871 7.472 28.778 14.063 39.282 5.705 9.09 11.092 17.676 11.092 28.356V95h26.46v-2.981c0-17.015-9.32-27.437-16.81-35.812-4.444-4.97-8.36-9.405-9.776-14.3H48.31l0.828-0.682c0.046-0.039 4.971-3.927 12.452-3.927 5.078 0 8.426-3.401 9.879-7.561h8.889l4.988 4.988 4.215-4.214-3.756-3.757L89.561 22.999zM61.59 31.337c-7.688 0-13.215 3.172-15.319 4.606H34.632c-4.963 0-5.473-1.956-5.811-3.249l-5.771 1.505c0.892 3.415 2.951 5.678 6.095 6.823 1.11 7.338 6.239 13.104 11.653 19.16 6.998 7.822 14.217 15.895 15.184 28.855H41.444c-0.843-10.938-6.222-19.514-11.89-28.545C23.087 50.19 16.402 39.536 16.402 24.38c0-7.774 5.734-13.417 13.635-13.417 10.102 0 14.677 2.317 19.521 4.772 4.285 2.172 8.705 4.409 16.449 4.798 0.176 1.103 0.336 2.608 0.336 4.405C66.342 25.003 66.213 31.337 61.59 31.337z" fill="#010536" data-fill-palette-color="quaternary"></path></svg></g></svg></g><path d="M76.609 89.688L77.752 90.075 73.926 101.367 66.309 85.816 61.954 98.669 87.433 107.302 87.046 108.445 60.424 99.425 66.109 82.648 73.725 98.2ZM73.902 67.899L98.559 81.393 97.98 82.452 73.323 68.957ZM108.632 67.771L107.711 66.992 115.754 57.494 87.5 52.404 107.384 69.244 106.605 70.165 85.155 51.999 86.065 50.925 115.594 56.252 95.771 39.464 96.551 38.543 118 56.709ZM131.577 46.57V46.57L128.393 48.752 112.503 25.566 115.688 23.384C118.867 21.205 122.36 20.53 126.169 21.357 129.986 22.185 132.939 24.123 135.027 27.169 137.114 30.215 137.855 33.668 137.25 37.527 136.647 41.377 134.756 44.392 131.577 46.57ZM128.706 47.075L130.895 45.575C133.786 43.594 135.515 40.845 136.079 37.33 136.635 33.814 135.952 30.654 134.031 27.851 132.111 25.048 129.41 23.271 125.93 22.52 122.448 21.778 119.261 22.398 116.37 24.379V24.379L114.18 25.879ZM171.474 28.813L171.26 27.626 185.804 25.004 173.27 3.473 168.832 29.289 167.566 29.517 172.644 0 187.719 25.885ZM219.633 6.482V6.482C220.169 3.944 221.196 2.247 222.713 1.389 224.237 0.533 226.438 0.41 229.317 1.019V1.019C231.336 1.446 232.851 2.314 233.862 3.624 234.866 4.933 235.417 6.717 235.515 8.978V8.978L231.283 10.96 229.355 10.552 234.268 8.262C234.094 6.396 233.564 5 232.678 4.072 231.792 3.145 230.588 2.521 229.067 2.199V2.199C228.024 1.978 227.129 1.857 226.38 1.836 225.631 1.815 224.855 1.918 224.054 2.146 223.252 2.373 222.579 2.865 222.036 3.62 221.491 4.381 221.08 5.418 220.803 6.729V6.729C220.559 7.883 220.874 9.019 221.747 10.135 222.622 11.245 223.754 12.275 225.142 13.227 226.523 14.176 227.912 15.141 229.308 16.122 230.703 17.102 231.821 18.215 232.66 19.461 233.508 20.702 233.79 21.991 233.507 23.329V23.329C232.952 25.952 231.89 27.765 230.322 28.769 228.758 29.781 226.403 29.954 223.255 29.289V29.289C220.692 28.747 218.785 27.802 217.535 26.455 216.292 25.11 215.625 23.294 215.533 21.007V21.007L216.734 20.768C216.804 22.996 217.388 24.657 218.485 25.752 219.583 26.847 221.256 27.633 223.505 28.109V28.109C226.023 28.641 227.994 28.551 229.419 27.839 230.836 27.131 231.805 25.545 232.327 23.079V23.079C232.571 21.925 232.258 20.794 231.39 19.686 230.516 18.569 229.379 17.534 227.978 16.58 226.576 15.626 225.188 14.661 223.812 13.685 222.429 12.708 221.315 11.595 220.469 10.348 219.629 9.108 219.35 7.819 219.632 6.482ZM245.592 36.566L246.117 35.479 257.324 40.89 255.183 12.261 243.854 35.726 242.768 35.202 254.988 9.889 256.256 10.501 258.487 40.425 269.781 17.031 270.868 17.556 258.647 42.868ZM269.375 51.364L270.177 50.463 281.212 60.293 290.428 37.146 267.371 49.579 266.41 48.723 292.775 34.512 281.701 62.344ZM311.06 54.211L311.752 55.199 288.725 71.319 288.034 70.331ZM320.227 67.306L321.219 68.722 302.495 65.361 298.93 85.896 297.938 84.479 301.504 63.944ZM322.524 102.365L321.399 102.801 317.094 91.683 332.911 98.731 328.01 86.076 304.048 95.354 309.675 109.885 308.55 110.321 302.488 94.665 328.699 84.515 335.096 101.033 319.279 93.984ZM84.817 190.595L83.665 190.986 79.778 179.545 95.49 187.351 91.068 174.339 65.263 183.107 64.872 181.956 91.828 172.796 97.599 189.777 81.887 181.971ZM103.006 199.066L78.032 212.735 77.448 211.668 102.422 197.999ZM90.7 230.124L91.629 229.338 99.772 238.962 109.593 211.583 89.44 228.635 88.655 227.706 110.389 209.316 111.304 210.399 101.038 239.01 121.129 222.01 121.921 222.946 100.187 241.336ZM118.315 255.56V255.56L115.098 253.355 131.193 229.871 134.411 232.077C137.628 234.282 139.544 237.337 140.157 241.243 140.771 245.15 140.02 248.645 137.906 251.73 135.792 254.814 132.802 256.775 128.938 257.612 125.074 258.45 121.533 257.765 118.315 255.56ZM116.789 253.039L119.003 254.557C121.933 256.565 125.161 257.189 128.688 256.43 132.211 255.676 134.947 253.878 136.894 251.036 138.842 248.195 139.532 244.995 138.964 241.437 138.4 237.874 136.653 235.088 133.723 233.08V233.08L131.509 231.562ZM167.146 277.022L167.362 275.825 182.092 278.491 177.829 253.619 164.465 276.536 163.189 276.305 178.467 250.097 183.596 280ZM215.371 257.633V257.633C214.832 255.062 215.092 253.069 216.152 251.656 217.212 250.242 219.201 249.23 222.12 248.618V248.618C224.167 248.189 225.924 248.372 227.391 249.167 228.86 249.969 230.102 251.4 231.115 253.461V253.461L227.999 257.021 226.041 257.431 229.665 253.303C228.735 251.642 227.673 250.563 226.481 250.067 225.281 249.572 223.911 249.486 222.369 249.809V249.809C221.307 250.031 220.425 250.284 219.724 250.568 219.024 250.852 218.347 251.264 217.693 251.805 217.046 252.345 216.628 253.076 216.438 253.999 216.242 254.93 216.283 256.058 216.561 257.383V257.383C216.806 258.551 217.561 259.475 218.826 260.155 220.09 260.828 221.556 261.322 223.225 261.637 224.899 261.95 226.584 262.275 228.277 262.612 229.965 262.956 231.455 263.531 232.747 264.336 234.04 265.147 234.828 266.228 235.111 267.579V267.579C235.667 270.236 235.426 272.351 234.386 273.924 233.34 275.499 231.226 276.62 228.044 277.287V277.287C225.44 277.832 223.288 277.739 221.587 277.007 219.878 276.269 218.514 274.857 217.494 272.77V272.77L218.517 272.062C219.498 274.096 220.719 275.398 222.18 275.968 223.641 276.532 225.512 276.575 227.795 276.096V276.096C230.34 275.563 232.126 274.675 233.153 273.433 234.188 272.196 234.444 270.328 233.92 267.828V267.828C233.676 266.661 232.921 265.74 231.657 265.067 230.392 264.387 228.915 263.892 227.227 263.581 225.546 263.27 223.865 262.944 222.185 262.604 220.504 262.265 219.018 261.689 217.725 260.878 216.438 260.066 215.654 258.984 215.371 257.633ZM255.521 267.469L254.995 266.373 266.358 260.914 242.331 244.518 253.763 268.314 252.667 268.84 240.338 243.178 241.616 242.564 266.723 259.701 255.326 235.978 256.431 235.447 268.76 261.109ZM284.757 249.112L283.949 248.203 295.14 238.262 272.942 226.26 282.72 250.922 281.75 251.783 270.565 223.584 297.256 238.01ZM283.77 209.77L284.469 208.775 307.767 225.138 307.068 226.133ZM293.073 196.525L294.078 195.094 297.334 214.088 318.121 210.395 317.116 211.827 296.329 215.519ZM314.521 177.401L315.655 177.842 311.275 189.104 304.262 173.023 299.281 185.831 323.547 195.269 329.268 180.559 330.402 181 324.24 196.843 297.706 186.523 304.207 169.808 311.22 185.89ZM67.331 141.406C67.331 139.602 68.794 138.139 70.599 138.139 72.403 138.139 73.866 139.602 73.866 141.406 73.866 143.211 72.403 144.674 70.599 144.674 68.794 144.674 67.331 143.211 67.331 141.406ZM320.672 141.406C320.672 139.602 322.135 138.139 323.94 138.139 325.744 138.139 327.207 139.602 327.207 141.406 327.207 143.211 325.744 144.674 323.94 144.674 322.135 144.674 320.672 143.211 320.672 141.406Z" fill="#000000" data-fill-palette-color="primary"></path></svg></g></svg></g></svg></g></svg></g><defs></defs></svg><rect width="395.52" height="280" fill="none" stroke="none" visibility="hidden"></rect></g></svg></g></svg>